<svg width="189" height="132" viewBox="0 0 189 132" fill="none" xmlns="http://www.w3.org/2000/svg">
<path fill-rule="evenodd" clip-rule="evenodd" d="M0 0L41.5002 0L79.5002 77.5L143 77.5L168.5 24.5L188.5 24.5L153 96.5L69.0002 96L30.0002 15.5L0 15.5L0 0ZM89.0002 119.5C89.0002 126.404 83.4038 132 76.5002 132C69.5966 132 64.0002 126.404 64.0002 119.5C64.0002 112.596 69.5966 107 76.5002 107C83.4038 107 89.0002 112.596 89.0002 119.5ZM154 119.5C154 126.404 148.404 132 141.5 132C134.597 132 129 126.404 129 119.5C129 112.596 134.597 107 141.5 107C148.404 107 154 112.596 154 119.5Z" fill="white"/>
</svg>
