<svg width="24" height="25" viewBox="0 0 24 25" fill="none" xmlns="http://www.w3.org/2000/svg">
<g clip-path="url(#clip0_85_333)">
<path d="M6.50014 15.3923C6.31014 15.3923 6.12014 15.3223 5.97014 15.1723C5.83066 15.0312 5.75244 14.8408 5.75244 14.6423C5.75244 14.4439 5.83066 14.2535 5.97014 14.1123L9.17014 10.9123C9.2475 10.8329 9.34168 10.7719 9.44576 10.7337C9.54983 10.6955 9.66115 10.6812 9.7715 10.6917C9.88186 10.7023 9.98844 10.7375 10.0834 10.7947C10.1783 10.8519 10.2592 10.9297 10.3201 11.0223L11.4101 12.6623L14.9601 9.11234C15.2501 8.82234 15.7301 8.82234 16.0201 9.11234C16.3101 9.40234 16.3101 9.88234 16.0201 10.1723L11.8201 14.3723C11.7428 14.4517 11.6486 14.5128 11.5445 14.551C11.4405 14.5891 11.3291 14.6035 11.2188 14.5929C11.1084 14.5824 11.0018 14.5472 10.9069 14.49C10.8119 14.4328 10.731 14.355 10.6701 14.2623L9.58014 12.6223L7.03014 15.1723C6.88014 15.3223 6.69014 15.3923 6.50014 15.3923Z" fill="white"/>
<path d="M15.5 12.3914C15.09 12.3914 14.75 12.0514 14.75 11.6414V10.3914H13.5C13.09 10.3914 12.75 10.0514 12.75 9.64136C12.75 9.23136 13.09 8.89136 13.5 8.89136H15.5C15.91 8.89136 16.25 9.23136 16.25 9.64136V11.6414C16.25 12.0514 15.91 12.3914 15.5 12.3914Z" fill="white"/>
<path d="M14 22.8914H8C2.57 22.8914 0.25 20.5714 0.25 15.1414V9.14136C0.25 3.71136 2.57 1.39136 8 1.39136H14C19.43 1.39136 21.75 3.71136 21.75 9.14136V15.1414C21.75 20.5714 19.43 22.8914 14 22.8914ZM8 2.89136C3.39 2.89136 1.75 4.53136 1.75 9.14136V15.1414C1.75 19.7514 3.39 21.3914 8 21.3914H14C18.61 21.3914 20.25 19.7514 20.25 15.1414V9.14136C20.25 4.53136 18.61 2.89136 14 2.89136H8Z" fill="white"/>
</g>
<defs>
<clipPath id="clip0_85_333">
<rect width="24" height="24" fill="white" transform="translate(0 0.141357)"/>
</clipPath>
</defs>
</svg>
