<svg width="24" height="25" viewBox="0 0 24 25" fill="none" xmlns="http://www.w3.org/2000/svg">
<g clip-path="url(#clip0_85_341)">
<path d="M15 23.0331H9C3.57 23.0331 1.25 20.7131 1.25 15.2831V9.28308C1.25 3.85308 3.57 1.53308 9 1.53308H15C20.43 1.53308 22.75 3.85308 22.75 9.28308V15.2831C22.75 20.7131 20.43 23.0331 15 23.0331ZM9 3.03308C4.39 3.03308 2.75 4.67308 2.75 9.28308V15.2831C2.75 19.8931 4.39 21.5331 9 21.5331H15C19.61 21.5331 21.25 19.8931 21.25 15.2831V9.28308C21.25 4.67308 19.61 3.03308 15 3.03308H9Z" fill="white"/>
<path d="M15.5801 19.5351C15.1701 19.5351 14.8301 19.1951 14.8301 18.7851V14.8851C14.8301 14.4751 15.1701 14.1351 15.5801 14.1351C15.9901 14.1351 16.3301 14.4751 16.3301 14.8851V18.7851C16.3301 19.1951 15.9901 19.5351 15.5801 19.5351ZM15.5801 8.48308C15.1701 8.48308 14.8301 8.14308 14.8301 7.73308V5.78308C14.8301 5.37308 15.1701 5.03308 15.5801 5.03308C15.9901 5.03308 16.3301 5.37308 16.3301 5.78308V7.73308C16.3301 8.14308 15.9901 8.48308 15.5801 8.48308Z" fill="white"/>
<path d="M15.5799 13.6831C14.9174 13.6831 14.2697 13.4866 13.7188 13.1185C13.1679 12.7504 12.7385 12.2272 12.4849 11.6151C12.2314 11.0029 12.165 10.3294 12.2943 9.67953C12.4236 9.02969 12.7426 8.43278 13.2111 7.96427C13.6796 7.49577 14.2765 7.17671 14.9264 7.04745C15.5762 6.91819 16.2498 6.98453 16.8619 7.23808C17.474 7.49164 17.9972 7.92102 18.3653 8.47192C18.7334 9.02283 18.9299 9.67051 18.9299 10.3331C18.9299 12.1831 17.4199 13.6831 15.5799 13.6831ZM15.5799 8.48308C14.5599 8.48308 13.7299 9.31308 13.7299 10.3331C13.7299 11.3531 14.5599 12.1831 15.5799 12.1831C16.5999 12.1831 17.4299 11.3531 17.4299 10.3331C17.4299 9.31308 16.5899 8.48308 15.5799 8.48308ZM8.41992 19.5331C8.00992 19.5331 7.66992 19.1931 7.66992 18.7831V16.8331C7.66992 16.4231 8.00992 16.0831 8.41992 16.0831C8.82992 16.0831 9.16992 16.4231 9.16992 16.8331V18.7831C9.16992 19.1931 8.83992 19.5331 8.41992 19.5331ZM8.41992 10.4331C8.00992 10.4331 7.66992 10.0931 7.66992 9.68308V5.78308C7.66992 5.37308 8.00992 5.03308 8.41992 5.03308C8.82992 5.03308 9.16992 5.37308 9.16992 5.78308V9.68308C9.16992 10.0931 8.83992 10.4331 8.41992 10.4331Z" fill="white"/>
<path d="M8.41982 17.5851C7.9799 17.5851 7.54428 17.4984 7.13784 17.3301C6.73139 17.1617 6.36209 16.915 6.05102 16.6039C5.73994 16.2928 5.49318 15.9235 5.32483 15.5171C5.15647 15.1106 5.06982 14.675 5.06982 14.2351C5.06982 13.7951 5.15647 13.3595 5.32483 12.9531C5.49318 12.5466 5.73994 12.1773 6.05102 11.8663C6.36209 11.5552 6.73139 11.3084 7.13784 11.1401C7.54428 10.9717 7.9799 10.8851 8.41982 10.8851C9.3083 10.8851 10.1604 11.238 10.7886 11.8663C11.4169 12.4945 11.7698 13.3466 11.7698 14.2351C11.7698 15.1235 11.4169 15.9756 10.7886 16.6039C10.1604 17.2321 9.3083 17.5851 8.41982 17.5851ZM8.41982 12.3851C7.39982 12.3851 6.56982 13.2151 6.56982 14.2351C6.56982 15.2551 7.39982 16.0851 8.41982 16.0851C9.43982 16.0851 10.2698 15.2551 10.2698 14.2351C10.2698 13.2151 9.44982 12.3851 8.41982 12.3851Z" fill="white"/>
</g>
<defs>
<clipPath id="clip0_85_341">
<rect width="24" height="24" fill="white" transform="translate(0 0.283081)"/>
</clipPath>
</defs>
</svg>
