<svg width="24" height="25" viewBox="0 0 24 25" fill="none" xmlns="http://www.w3.org/2000/svg">
<path d="M11 2.84863H9C4 2.84863 2 4.84863 2 9.84863V15.8486C2 20.8486 4 22.8486 9 22.8486H15C20 22.8486 22 20.8486 22 15.8486V13.8486" stroke="white" stroke-width="1.5" stroke-linecap="round" stroke-linejoin="round"/>
<path d="M16.0399 3.86863L8.15988 11.7486C7.85988 12.0486 7.55988 12.6386 7.49988 13.0686L7.06988 16.0786C6.90988 17.1686 7.67988 17.9286 8.76988 17.7786L11.7799 17.3486C12.1999 17.2886 12.7899 16.9886 13.0999 16.6886L20.9799 8.80863C22.3399 7.44863 22.9799 5.86863 20.9799 3.86863C18.9799 1.86863 17.3999 2.50863 16.0399 3.86863Z" stroke="white" stroke-width="1.5" stroke-miterlimit="10" stroke-linecap="round" stroke-linejoin="round"/>
<path d="M14.9102 4.99863C15.5802 7.38863 17.4502 9.25863 19.8502 9.93863" stroke="white" stroke-width="1.5" stroke-miterlimit="10" stroke-linecap="round" stroke-linejoin="round"/>
</svg>
