<svg width="24" height="24" viewBox="0 0 24 24" fill="none" xmlns="http://www.w3.org/2000/svg">
<path d="M10.4101 13.53L9.00009 15.25C8.9872 15.2685 8.97001 15.2837 8.94998 15.2942C8.92996 15.3046 8.90769 15.3101 8.88509 15.3101C8.86249 15.3101 8.84023 15.3046 8.8202 15.2942C8.80017 15.2837 8.78298 15.2685 8.77009 15.25L8.00009 14.47C7.85405 14.3869 7.68437 14.3553 7.51823 14.3802C7.3521 14.4051 7.19913 14.4851 7.08385 14.6073C6.96857 14.7295 6.89765 14.8868 6.88247 15.0541C6.86728 15.2214 6.9087 15.389 7.00009 15.53L8.47009 17C8.61061 17.1406 8.80125 17.2198 9.00009 17.22C9.1082 17.2251 9.21623 17.2083 9.31765 17.1704C9.41906 17.1326 9.51174 17.0746 9.59009 17L11.5901 14.5C11.7147 14.3435 11.7721 14.1439 11.7496 13.9451C11.7271 13.7463 11.6266 13.5646 11.4701 13.44C11.3926 13.3782 11.3037 13.3324 11.2085 13.305C11.1133 13.2776 11.0137 13.2693 10.9152 13.2804C10.7164 13.3029 10.5347 13.4035 10.4101 13.56V13.53Z" fill="#D1D1D1"/>
<path d="M10.41 8L8.99998 9.75C8.98709 9.76856 8.9699 9.78373 8.94987 9.79421C8.92985 9.80468 8.90758 9.81015 8.88498 9.81015C8.86238 9.81015 8.84012 9.80468 8.82009 9.79421C8.80006 9.78373 8.78287 9.76856 8.76998 9.75L7.99998 9C7.86003 8.93316 7.70279 8.91135 7.54993 8.93757C7.39707 8.9638 7.2561 9.03677 7.14643 9.14644C7.03676 9.25611 6.96379 9.39709 6.93756 9.54995C6.91133 9.70281 6.93314 9.86004 6.99998 10L8.49998 11.5C8.6405 11.6407 8.83114 11.7198 9.02998 11.72H8.99998C9.10563 11.7121 9.20865 11.6832 9.30307 11.6352C9.39749 11.5871 9.48141 11.5208 9.54998 11.44L11.55 8.94C11.6371 8.78651 11.6673 8.6072 11.6353 8.43363C11.6033 8.26005 11.5111 8.10334 11.3749 7.99105C11.2387 7.87876 11.0673 7.8181 10.8908 7.81973C10.7143 7.82137 10.5441 7.8852 10.41 8Z" fill="#D1D1D1"/>
<path d="M16 9.75H13.5C13.3011 9.75 13.1103 9.82902 12.9697 9.96967C12.829 10.1103 12.75 10.3011 12.75 10.5C12.75 10.6989 12.829 10.8897 12.9697 11.0303C13.1103 11.171 13.3011 11.25 13.5 11.25H16C16.1989 11.25 16.3897 11.171 16.5303 11.0303C16.671 10.8897 16.75 10.6989 16.75 10.5C16.75 10.3011 16.671 10.1103 16.5303 9.96967C16.3897 9.82902 16.1989 9.75 16 9.75Z" fill="#D1D1D1"/>
<path d="M16 15.25H13.5C13.3011 15.25 13.1103 15.329 12.9697 15.4697C12.829 15.6103 12.75 15.8011 12.75 16C12.75 16.1989 12.829 16.3897 12.9697 16.5303C13.1103 16.671 13.3011 16.75 13.5 16.75H16C16.1989 16.75 16.3897 16.671 16.5303 16.5303C16.671 16.3897 16.75 16.1989 16.75 16C16.75 15.8011 16.671 15.6103 16.5303 15.4697C16.3897 15.329 16.1989 15.25 16 15.25Z" fill="#D1D1D1"/>
<path d="M21.71 5.71L16.29 0.29C16.1037 0.105256 15.8523 0.00110462 15.59 0L4 0C3.46957 0 2.96086 0.210714 2.58579 0.585786C2.21071 0.960859 2 1.46957 2 2V22C2 22.5304 2.21071 23.0391 2.58579 23.4142C2.96086 23.7893 3.46957 24 4 24H20C20.5304 24 21.0391 23.7893 21.4142 23.4142C21.7893 23.0391 22 22.5304 22 22V6.41C21.9989 6.14766 21.8947 5.89626 21.71 5.71ZM20 21.5C20 21.6326 19.9473 21.7598 19.8536 21.8536C19.7598 21.9473 19.6326 22 19.5 22H4.5C4.36739 22 4.24021 21.9473 4.14645 21.8536C4.05268 21.7598 4 21.6326 4 21.5V2.5C4 2.36739 4.05268 2.24021 4.14645 2.14645C4.24021 2.05268 4.36739 2 4.5 2H14.75C14.8163 2 14.8799 2.02634 14.9268 2.07322C14.9737 2.12011 15 2.1837 15 2.25V5C15 5.53043 15.2107 6.03914 15.5858 6.41421C15.9609 6.78929 16.4696 7 17 7H19.75C19.8163 7 19.8799 7.02634 19.9268 7.07322C19.9737 7.12011 20 7.1837 20 7.25V21.5Z" fill="#D1D1D1"/>
</svg>
