<svg width="24" height="24" viewBox="0 0 24 24" fill="none" xmlns="http://www.w3.org/2000/svg">
<path d="M11 1.83997C11 1.44214 10.842 1.06061 10.5607 0.779306C10.2794 0.498001 9.89782 0.339966 9.5 0.339966H1.5C1.10218 0.339966 0.720644 0.498001 0.43934 0.779306C0.158035 1.06061 0 1.44214 0 1.83997L0 7.83997C0 8.23779 0.158035 8.61932 0.43934 8.90063C0.720644 9.18193 1.10218 9.33996 1.5 9.33996H4.74C4.79387 9.34129 4.84611 9.3587 4.89 9.38997L7.19 11.23C7.27835 11.2999 7.38735 11.3385 7.5 11.34C7.57587 11.3376 7.65057 11.3206 7.72 11.29C7.80343 11.2478 7.87366 11.1836 7.92304 11.1042C7.97242 11.0248 7.99905 10.9334 8 10.84V9.58997C8 9.52366 8.02634 9.46007 8.07322 9.41319C8.12011 9.3663 8.1837 9.33996 8.25 9.33996H9.5C9.89782 9.33996 10.2794 9.18193 10.5607 8.90063C10.842 8.61932 11 8.23779 11 7.83997V1.83997ZM6 6.20997C5.88361 6.36454 5.73239 6.48948 5.55863 6.57462C5.38487 6.65976 5.19348 6.7027 5 6.69997C4.66646 6.69731 4.34713 6.56455 4.11 6.32997L3.11 5.32997C2.96955 5.18934 2.89066 4.99872 2.89066 4.79997C2.89066 4.60121 2.96955 4.41059 3.11 4.26997C3.25063 4.12952 3.44125 4.05063 3.64 4.05063C3.83875 4.05063 4.02937 4.12952 4.17 4.26997L4.77 4.85997C4.79423 4.88536 4.82395 4.90487 4.85688 4.917C4.88981 4.92913 4.92509 4.93357 4.96 4.92997C4.99588 4.92924 5.03105 4.91975 5.06242 4.90232C5.0938 4.88489 5.12043 4.86005 5.14 4.82997L6.68 2.71997C6.79935 2.56084 6.97702 2.45563 7.17393 2.4275C7.37085 2.39937 7.57087 2.45062 7.73 2.56997C7.88913 2.68931 7.99433 2.86699 8.02246 3.0639C8.05059 3.26081 7.99935 3.46084 7.88 3.61997L6 6.20997Z" fill="#D1D1D1"/>
<path d="M22.5 0.339966H14.5C14.1022 0.339966 13.7206 0.498001 13.4393 0.779306C13.158 1.06061 13 1.44214 13 1.83997V7.83997C13 8.23779 13.158 8.61932 13.4393 8.90063C13.7206 9.18193 14.1022 9.33996 14.5 9.33996H15.75C15.8163 9.33996 15.8799 9.3663 15.9268 9.41319C15.9737 9.46007 16 9.52366 16 9.58997V10.84C16.001 10.9334 16.0276 11.0248 16.077 11.1042C16.1263 11.1836 16.1966 11.2478 16.28 11.29C16.3494 11.3206 16.4241 11.3376 16.5 11.34C16.6126 11.3385 16.7217 11.2999 16.81 11.23L19.11 9.38997C19.1539 9.3587 19.2061 9.34129 19.26 9.33996H22.5C22.8978 9.33996 23.2794 9.18193 23.5607 8.90063C23.842 8.61932 24 8.23779 24 7.83997V1.83997C24 1.44214 23.842 1.06061 23.5607 0.779306C23.2794 0.498001 22.8978 0.339966 22.5 0.339966ZM20.5 5.80997C20.6405 5.95059 20.7193 6.14121 20.7193 6.33997C20.7193 6.53872 20.6405 6.72934 20.5 6.86997C20.3594 7.01042 20.1688 7.08931 19.97 7.08931C19.7712 7.08931 19.5806 7.01042 19.44 6.86997L18.65 6.06997C18.6005 6.02569 18.5364 6.00121 18.47 6.00121C18.4036 6.00121 18.3395 6.02569 18.29 6.06997L17.5 6.86997C17.3594 7.01042 17.1688 7.08931 16.97 7.08931C16.7712 7.08931 16.5806 7.01042 16.44 6.86997C16.2995 6.72934 16.2207 6.53872 16.2207 6.33997C16.2207 6.14121 16.2995 5.95059 16.44 5.80997L17.23 5.00997C17.2539 4.98752 17.273 4.96041 17.286 4.93031C17.299 4.90021 17.3058 4.86776 17.3058 4.83497C17.3058 4.80217 17.299 4.76972 17.286 4.73962C17.273 4.70952 17.2539 4.68241 17.23 4.65997L16.44 3.86997C16.2995 3.72934 16.2207 3.53872 16.2207 3.33997C16.2207 3.14122 16.2995 2.95059 16.44 2.80997C16.5089 2.73921 16.5914 2.68297 16.6824 2.64458C16.7734 2.60618 16.8712 2.5864 16.97 2.5864C17.0688 2.5864 17.1666 2.60618 17.2576 2.64458C17.3486 2.68297 17.4311 2.73921 17.5 2.80997L18.29 3.59997C18.3133 3.62416 18.3413 3.64341 18.3722 3.65655C18.4031 3.6697 18.4364 3.67647 18.47 3.67647C18.5036 3.67647 18.5369 3.6697 18.5678 3.65655C18.5987 3.64341 18.6267 3.62416 18.65 3.59997L19.44 2.80997C19.5089 2.73921 19.5914 2.68297 19.6824 2.64458C19.7734 2.60618 19.8712 2.5864 19.97 2.5864C20.0688 2.5864 20.1666 2.60618 20.2576 2.64458C20.3486 2.68297 20.4311 2.73921 20.5 2.80997C20.6405 2.95059 20.7193 3.14122 20.7193 3.33997C20.7193 3.53872 20.6405 3.72934 20.5 3.86997L19.71 4.65997C19.6861 4.68241 19.667 4.70952 19.654 4.73962C19.641 4.76972 19.6342 4.80217 19.6342 4.83497C19.6342 4.86776 19.641 4.90021 19.654 4.93031C19.667 4.96041 19.6861 4.98752 19.71 5.00997L20.5 5.80997Z" fill="#D1D1D1"/>
<path d="M7.85999 21C7.82074 20.9798 7.7873 20.9499 7.7628 20.9132C7.73831 20.8764 7.72358 20.834 7.71999 20.79C7.71908 20.7447 7.72959 20.6999 7.75056 20.6597C7.77153 20.6195 7.80229 20.5852 7.83999 20.56C8.56317 20.1074 9.11942 19.4317 9.42473 18.6351C9.73004 17.8385 9.76781 16.9641 9.53236 16.1441C9.2969 15.3241 8.801 14.603 8.11956 14.0896C7.43811 13.5763 6.60814 13.2987 5.75499 13.2987C4.90185 13.2987 4.07187 13.5763 3.39043 14.0896C2.70899 14.603 2.21308 15.3241 1.97763 16.1441C1.74217 16.9641 1.77995 17.8385 2.08526 18.6351C2.39056 19.4317 2.94681 20.1074 3.66999 20.56C3.70759 20.5829 3.73848 20.6153 3.75955 20.6539C3.78062 20.6925 3.79112 20.736 3.78999 20.78C3.78626 20.8253 3.77156 20.869 3.74717 20.9073C3.72278 20.9456 3.68943 20.9775 3.64999 21C2.68022 21.493 1.90253 22.2953 1.43999 23.28C1.42071 23.3171 1.41064 23.3582 1.41064 23.4C1.41064 23.4418 1.42071 23.483 1.43999 23.52C1.46377 23.5537 1.49521 23.5812 1.53173 23.6004C1.56824 23.6195 1.60878 23.6296 1.64999 23.63H9.86999C9.91121 23.6296 9.95175 23.6195 9.98826 23.6004C10.0248 23.5812 10.0562 23.5537 10.08 23.52C10.0994 23.4812 10.1094 23.4384 10.1094 23.395C10.1094 23.3516 10.0994 23.3088 10.08 23.27C9.61372 22.287 8.83234 21.4881 7.85999 21ZM3.85999 16.69C3.88712 16.6191 3.94098 16.5617 4.00999 16.53C4.04476 16.5152 4.08218 16.5075 4.11999 16.5075C4.1578 16.5075 4.19522 16.5152 4.22999 16.53C5.00292 16.9853 5.88297 17.2268 6.77999 17.23C7.04114 17.2299 7.3019 17.2099 7.55999 17.17H7.60999C7.61533 17.1863 7.61533 17.2038 7.60999 17.22C7.62907 17.4845 7.59344 17.75 7.50534 18.0001C7.41724 18.2502 7.27856 18.4795 7.09794 18.6736C6.91732 18.8677 6.69864 19.0225 6.45554 19.1284C6.21245 19.2342 5.95014 19.2889 5.68499 19.2889C5.41984 19.2889 5.15754 19.2342 4.91444 19.1284C4.67134 19.0225 4.45266 18.8677 4.27204 18.6736C4.09142 18.4795 3.95274 18.2502 3.86464 18.0001C3.77654 17.75 3.74092 17.4845 3.75999 17.22C3.78388 17.0446 3.83096 16.8731 3.89999 16.71L3.85999 16.69Z" fill="#D1D1D1"/>
<path d="M20.25 21C20.2107 20.9797 20.1773 20.9498 20.1528 20.9131C20.1283 20.8764 20.1136 20.834 20.11 20.79C20.107 20.7454 20.1156 20.7008 20.1348 20.6606C20.1541 20.6203 20.1834 20.5856 20.22 20.56C20.9312 20.0929 21.4711 19.407 21.7582 18.6061C22.0453 17.8051 22.064 16.9324 21.8114 16.1198C21.5589 15.3073 21.0488 14.599 20.3582 14.1019C19.6676 13.6048 18.834 13.3459 17.9833 13.3643C17.1326 13.3827 16.311 13.6774 15.6426 14.2039C14.9741 14.7304 14.4951 15.4601 14.278 16.2828C14.0608 17.1055 14.1172 17.9766 14.4386 18.7644C14.7601 19.5522 15.3292 20.2141 16.06 20.65C16.0973 20.6721 16.1282 20.7036 16.1496 20.7413C16.1711 20.779 16.1824 20.8216 16.1824 20.865C16.1824 20.9084 16.1711 20.951 16.1496 20.9887C16.1282 21.0264 16.0973 21.0578 16.06 21.08C15.1198 21.5758 14.3681 22.3661 13.92 23.33C13.9007 23.367 13.8906 23.4082 13.8906 23.45C13.8906 23.4917 13.9007 23.5329 13.92 23.57C13.9438 23.6036 13.9752 23.6312 14.0117 23.6503C14.0482 23.6694 14.0888 23.6796 14.13 23.68H22.34C22.3812 23.6796 22.4217 23.6694 22.4582 23.6503C22.4948 23.6312 22.5262 23.6036 22.55 23.57C22.5693 23.5329 22.5793 23.4917 22.5793 23.45C22.5793 23.4082 22.5693 23.367 22.55 23.33C22.0772 22.3097 21.264 21.4859 20.25 21ZM16.15 17.28C16.1446 17.2637 16.1446 17.2462 16.15 17.23C16.1593 17.2255 16.1696 17.2232 16.18 17.2232C16.1904 17.2232 16.2006 17.2255 16.21 17.23C16.468 17.2706 16.7288 17.2907 16.99 17.29C17.887 17.2868 18.767 17.0452 19.54 16.59C19.5731 16.5754 19.6088 16.5678 19.645 16.5678C19.6811 16.5678 19.7169 16.5754 19.75 16.59C19.7851 16.6041 19.8168 16.6257 19.8427 16.6534C19.8686 16.681 19.8881 16.714 19.9 16.75C19.9521 16.9287 19.979 17.1138 19.98 17.3C19.999 17.5644 19.9634 17.83 19.8753 18.0801C19.7872 18.3302 19.6485 18.5594 19.4679 18.7535C19.2873 18.9476 19.0686 19.1025 18.8255 19.2083C18.5824 19.3142 18.3201 19.3688 18.055 19.3688C17.7898 19.3688 17.5275 19.3142 17.2844 19.2083C17.0413 19.1025 16.8226 18.9476 16.642 18.7535C16.4614 18.5594 16.3227 18.3302 16.2346 18.0801C16.1465 17.83 16.1109 17.5644 16.13 17.3L16.15 17.28Z" fill="#D1D1D1"/>
</svg>
