<svg width="24" height="24" viewBox="0 0 24 24" fill="none" xmlns="http://www.w3.org/2000/svg">
<path d="M16.75 5.25C16.75 4.21165 16.4421 3.19662 15.8652 2.33326C15.2883 1.4699 14.4684 0.796995 13.5091 0.399635C12.5498 0.00227473 11.4942 -0.101693 10.4758 0.10088C9.45738 0.303452 8.52192 0.803466 7.78769 1.53769C7.05347 2.27192 6.55345 3.20738 6.35088 4.22578C6.14831 5.24418 6.25227 6.29978 6.64963 7.25909C7.047 8.2184 7.7199 9.03834 8.58326 9.61522C9.44662 10.1921 10.4616 10.5 11.5 10.5C12.8916 10.4974 14.2254 9.94339 15.2094 8.95939C16.1934 7.9754 16.7474 6.64158 16.75 5.25ZM11.5 8.5C10.6389 8.49736 9.81374 8.15411 9.20482 7.54519C8.5959 6.93626 8.25264 6.11114 8.25 5.25C8.25058 4.84653 8.32515 4.44658 8.47 4.07C8.48413 4.03485 8.50577 4.00322 8.53341 3.97731C8.56105 3.9514 8.59402 3.93184 8.63 3.92C8.66402 3.90246 8.70173 3.89331 8.74 3.89331C8.77827 3.89331 8.81599 3.90246 8.85 3.92C10.0392 4.76334 11.4621 5.21433 12.92 5.21C13.4584 5.21113 13.9953 5.15073 14.52 5.03C14.5451 5.01837 14.5724 5.01234 14.6 5.01234C14.6276 5.01234 14.6549 5.01837 14.68 5.03C14.7012 5.04896 14.7184 5.07203 14.7304 5.09781C14.7424 5.1236 14.7491 5.15156 14.75 5.18C14.758 5.61229 14.6798 6.04185 14.5202 6.44366C14.3606 6.84548 14.1226 7.21153 13.8202 7.52049C13.5177 7.82946 13.1568 8.07518 12.7585 8.24334C12.3602 8.4115 11.9324 8.49875 11.5 8.5Z" fill="#CFCFCF"/>
<path d="M10.8902 12C10.9016 11.9444 10.9315 11.8942 10.9751 11.8579C11.0187 11.8215 11.0734 11.8011 11.1302 11.8H11.8702C11.927 11.8011 11.9817 11.8215 12.0253 11.8579C12.0689 11.8942 12.0989 11.9444 12.1102 12L13.1102 16.35C13.1216 16.4056 13.1515 16.4557 13.1951 16.4921C13.2387 16.5284 13.2934 16.5489 13.3502 16.55H18.0002C18.1196 16.5489 18.237 16.5192 18.3426 16.4636C18.4482 16.408 18.5391 16.3279 18.6075 16.2301C18.676 16.1323 18.7201 16.0196 18.7362 15.9013C18.7524 15.783 18.74 15.6625 18.7002 15.55C18.1458 14.0864 17.159 12.8262 15.8712 11.9369C14.5833 11.0476 13.0553 10.5713 11.4902 10.5713C9.92513 10.5713 8.39711 11.0476 7.10924 11.9369C5.82137 12.8262 4.83465 14.0864 4.28021 15.55C4.24041 15.6625 4.22805 15.783 4.24417 15.9013C4.26029 16.0196 4.30442 16.1323 4.37288 16.2301C4.44135 16.3279 4.53217 16.408 4.6378 16.4636C4.74344 16.5192 4.86083 16.5489 4.98021 16.55H9.68021C9.73698 16.5489 9.79168 16.5284 9.8353 16.4921C9.87892 16.4557 9.90886 16.4056 9.92021 16.35L10.8902 12Z" fill="#CFCFCF"/>
<path d="M24 19C24 18.7348 23.8946 18.4804 23.7071 18.2929C23.5196 18.1054 23.2652 18 23 18H1C0.734784 18 0.48043 18.1054 0.292893 18.2929C0.105357 18.4804 0 18.7348 0 19C0 19.2652 0.105357 19.5196 0.292893 19.7071C0.48043 19.8946 0.734784 20 1 20H1.25C1.3163 20 1.37989 20.0263 1.42678 20.0732C1.47366 20.1201 1.5 20.1837 1.5 20.25V23C1.5 23.2652 1.60536 23.5196 1.79289 23.7071C1.98043 23.8946 2.23478 24 2.5 24H21.5C21.7652 24 22.0196 23.8946 22.2071 23.7071C22.3946 23.5196 22.5 23.2652 22.5 23V20.25C22.5 20.1837 22.5263 20.1201 22.5732 20.0732C22.6201 20.0263 22.6837 20 22.75 20H23C23.2652 20 23.5196 19.8946 23.7071 19.7071C23.8946 19.5196 24 19.2652 24 19Z" fill="#CFCFCF"/>
</svg>
