<svg width="24" height="24" viewBox="0 0 24 24" fill="none" xmlns="http://www.w3.org/2000/svg">
<path d="M23.3301 12.65V13.65C23.3348 13.8839 23.2574 14.1121 23.1112 14.2949C22.965 14.4776 22.7594 14.6032 22.5301 14.65L21.2901 14.9C21.0538 15.8951 20.6551 16.8445 20.1101 17.71L20.8201 18.77C20.9408 18.9588 20.9946 19.1827 20.9729 19.4058C20.9511 19.6288 20.8551 19.8381 20.7001 20L19.3301 21.37C19.1662 21.5322 18.9512 21.6328 18.7215 21.6547C18.4919 21.6766 18.2618 21.6184 18.0701 21.49L17.0001 20.77C16.141 21.3315 15.1949 21.7471 14.2001 22L14.0001 23.19C13.9534 23.4193 13.8277 23.6249 13.645 23.7711C13.4623 23.9172 13.2341 23.9947 13.0001 23.99H11.0001C10.7662 23.9947 10.538 23.9172 10.3553 23.7711C10.1725 23.6249 10.0469 23.4193 10.0001 23.19L9.80013 22C8.80537 21.7471 7.85928 21.3315 7.00013 20.77L5.94013 21.48C5.74849 21.6084 5.51836 21.6666 5.28872 21.6447C5.05909 21.6228 4.84408 21.5222 4.68013 21.36L3.30013 20C3.13787 19.836 3.03729 19.621 3.01542 19.3914C2.99355 19.1618 3.05174 18.9316 3.18013 18.74L3.89013 17.68C3.34511 16.8145 2.94643 15.8651 2.71013 14.87L1.47013 14.62C1.24085 14.5732 1.03523 14.4476 0.889053 14.2649C0.742878 14.0821 0.665407 13.8539 0.670125 13.62V12.62H7.23013C7.23013 13.8851 7.73268 15.0983 8.62723 15.9929C9.52178 16.8874 10.735 17.39 12.0001 17.39C13.2652 17.39 14.4785 16.8874 15.373 15.9929C16.2676 15.0983 16.7701 13.8851 16.7701 12.62L23.3301 12.65Z" fill="#D1D1D1"/>
<path d="M17.1699 3.80999C17.1699 4.11466 17.2299 4.41634 17.3465 4.69782C17.4631 4.97929 17.634 5.23505 17.8494 5.45048C18.0649 5.66591 18.3206 5.8368 18.6021 5.95339C18.8836 6.06998 19.1853 6.12999 19.4899 6.12999C19.7946 6.12999 20.0963 6.06998 20.3777 5.95339C20.6592 5.8368 20.915 5.66591 21.1304 5.45048C21.3458 5.23505 21.5167 4.97929 21.6333 4.69782C21.7499 4.41634 21.8099 4.11466 21.8099 3.80999C21.8099 3.19469 21.5655 2.60459 21.1304 2.1695C20.6953 1.73442 20.1052 1.48999 19.4899 1.48999C18.8746 1.48999 18.2845 1.73442 17.8494 2.1695C17.4143 2.60459 17.1699 3.19469 17.1699 3.80999Z" fill="#D1D1D1"/>
<path d="M2.2002 3.80999C2.2002 4.42529 2.44462 5.01539 2.87971 5.45048C3.31479 5.88556 3.90489 6.12999 4.5202 6.12999C5.1355 6.12999 5.7256 5.88556 6.16068 5.45048C6.59577 5.01539 6.84019 4.42529 6.84019 3.80999C6.84019 3.19469 6.59577 2.60459 6.16068 2.1695C5.7256 1.73442 5.1355 1.48999 4.5202 1.48999C3.90489 1.48999 3.31479 1.73442 2.87971 2.1695C2.44462 2.60459 2.2002 3.19469 2.2002 3.80999Z" fill="#D1D1D1"/>
<path d="M6.8 8.80002C6.44119 8.57185 6.05474 8.39038 5.65 8.26002C4.57789 7.95873 3.43528 8.03008 2.40898 8.4624C1.38267 8.89471 0.533399 9.66243 0 10.64H5.73C6.02635 9.99354 6.38469 9.37732 6.8 8.80002Z" fill="#D1D1D1"/>
<path d="M18.1799 10.6699H23.9999C23.4692 9.68664 22.6196 8.91326 21.5909 8.47706C20.5622 8.04086 19.4157 7.96781 18.3399 8.26994C17.9278 8.40187 17.5345 8.58675 17.1699 8.81994C17.5623 9.4045 17.9004 10.0238 18.1799 10.6699Z" fill="#D1D1D1"/>
<path d="M17.0699 10.67C16.6706 9.63324 15.9791 8.73462 15.0791 8.08318C14.1792 7.43173 13.1095 7.05546 11.9999 7C10.8811 7.04928 9.80097 7.42362 8.89163 8.07721C7.98229 8.7308 7.28319 9.63529 6.87988 10.68L17.0699 10.67Z" fill="#D1D1D1"/>
<path d="M8.99023 2.91C8.99023 3.29215 9.0655 3.67055 9.21174 4.02361C9.35799 4.37667 9.57234 4.69746 9.84255 4.96768C10.1128 5.2379 10.4336 5.45225 10.7866 5.59849C11.1397 5.74473 11.5181 5.82 11.9002 5.82C12.2824 5.82 12.6608 5.74473 13.0138 5.59849C13.3669 5.45225 13.6877 5.2379 13.9579 4.96768C14.2281 4.69746 14.4425 4.37667 14.5887 4.02361C14.735 3.67055 14.8102 3.29215 14.8102 2.91C14.8102 2.13822 14.5036 1.39805 13.9579 0.852319C13.4122 0.306588 12.672 0 11.9002 0C11.1285 0 10.3883 0.306588 9.84255 0.852319C9.29682 1.39805 8.99023 2.13822 8.99023 2.91Z" fill="#D1D1D1"/>
</svg>
