<svg width="24" height="24" viewBox="0 0 24 24" fill="none" xmlns="http://www.w3.org/2000/svg">
<path d="M17.1699 17.15C17.1699 17.4546 17.2299 17.7563 17.3465 18.0378C17.4631 18.3193 17.634 18.575 17.8494 18.7904C18.0649 19.0059 18.3206 19.1768 18.6021 19.2934C18.8836 19.4099 19.1853 19.47 19.4899 19.47C19.7946 19.47 20.0963 19.4099 20.3777 19.2934C20.6592 19.1768 20.915 19.0059 21.1304 18.7904C21.3458 18.575 21.5167 18.3193 21.6333 18.0378C21.7499 17.7563 21.8099 17.4546 21.8099 17.15C21.8099 16.5347 21.5655 15.9446 21.1304 15.5095C20.6953 15.0744 20.1052 14.83 19.4899 14.83C18.8746 14.83 18.2845 15.0744 17.8494 15.5095C17.4143 15.9446 17.1699 16.5347 17.1699 17.15Z" fill="#CCCCCC"/>
<path d="M2.2002 17.15C2.2002 17.7653 2.44462 18.3554 2.87971 18.7904C3.31479 19.2255 3.90489 19.47 4.5202 19.47C5.1355 19.47 5.7256 19.2255 6.16068 18.7904C6.59577 18.3554 6.84019 17.7653 6.84019 17.15C6.84019 16.5347 6.59577 15.9446 6.16068 15.5095C5.7256 15.0744 5.1355 14.83 4.5202 14.83C3.90489 14.83 3.31479 15.0744 2.87971 15.5095C2.44462 15.9446 2.2002 16.5347 2.2002 17.15Z" fill="#CCCCCC"/>
<path d="M18.1602 24H24.0002C23.4668 23.0193 22.6169 22.2481 21.589 21.8123C20.5612 21.3764 19.416 21.3016 18.3402 21.6C17.9331 21.7325 17.5436 21.9138 17.1802 22.14C17.5818 22.7175 17.9109 23.3422 18.1602 24Z" fill="#CCCCCC"/>
<path d="M6.76 22.11C6.41657 21.8938 6.04691 21.7224 5.66 21.6C4.58418 21.3016 3.43902 21.3764 2.41117 21.8123C1.38332 22.2481 0.53342 23.0193 0 24H5.74C6.00754 23.3335 6.34972 22.6995 6.76 22.11Z" fill="#CCCCCC"/>
<path d="M17.0701 24.0001C16.6739 22.9596 15.9837 22.0567 15.0835 21.4016C14.1833 20.7464 13.112 20.3671 12.0001 20.3101C10.8715 20.3506 9.77969 20.722 8.86048 21.378C7.94127 22.0341 7.2352 22.9459 6.83008 24.0001H17.0701Z" fill="#CCCCCC"/>
<path d="M10.3501 7.42007C10.3501 7.84441 10.5187 8.25138 10.8187 8.55144C11.1188 8.8515 11.5258 9.02007 11.9501 9.02007C12.3744 9.02007 12.7814 8.8515 13.0815 8.55144C13.3815 8.25138 13.5501 7.84441 13.5501 7.42007C13.5501 6.99572 13.3815 6.58876 13.0815 6.2887C12.7814 5.98864 12.3744 5.82007 11.9501 5.82007C11.5258 5.82007 11.1188 5.98864 10.8187 6.2887C10.5187 6.58876 10.3501 6.99572 10.3501 7.42007Z" fill="#CCCCCC"/>
<path d="M16.9999 7.75001C16.9169 7.65813 16.871 7.53877 16.871 7.41501C16.871 7.29125 16.9169 7.17188 16.9999 7.08001L18.0899 6.00001C18.3718 5.70387 18.5489 5.3235 18.594 4.91714C18.6392 4.51077 18.5499 4.1008 18.3399 3.75001C18.1402 3.3976 17.831 3.11999 17.4592 2.95936C17.0874 2.79872 16.6733 2.76384 16.2799 2.86001L14.7799 3.21001C14.6597 3.23286 14.5354 3.21088 14.4303 3.14822C14.3253 3.08557 14.2469 2.98659 14.2099 2.87001L13.7599 1.39001C13.6429 1.00092 13.4037 0.65987 13.0777 0.417431C12.7516 0.174992 12.3562 0.0440674 11.9499 0.0440674C11.5436 0.0440674 11.1481 0.174992 10.8221 0.417431C10.496 0.65987 10.2568 1.00092 10.1399 1.39001L9.68987 2.82001C9.65696 2.93708 9.58084 3.03729 9.47689 3.1004C9.37294 3.16351 9.24892 3.18481 9.12987 3.16001L7.61987 2.81001C7.22642 2.71213 6.81171 2.74621 6.43952 2.90701C6.06733 3.06781 5.75827 3.34643 5.55987 3.70001C5.34086 4.05691 5.24658 4.47644 5.29183 4.89273C5.33708 5.30902 5.51929 5.69849 5.80987 6.00001L6.86987 7.08001C6.95279 7.17188 6.99869 7.29125 6.99869 7.41501C6.99869 7.53877 6.95279 7.65813 6.86987 7.75001L5.80987 8.88001C5.53089 9.1778 5.35579 9.55788 5.31073 9.96344C5.26566 10.369 5.35307 10.7782 5.55987 11.13C5.76002 11.4811 6.07021 11.7566 6.44254 11.9138C6.81487 12.0711 7.22861 12.1014 7.61987 12L9.12987 11.66C9.24775 11.6323 9.37178 11.6511 9.47611 11.7126C9.58044 11.7741 9.65701 11.8735 9.68987 11.99L9.95987 12.85C10.5686 12.4953 11.2623 12.3126 11.9668 12.3214C12.6713 12.3302 13.3602 12.5302 13.9599 12.9L14.2399 11.99C14.2769 11.874 14.3558 11.776 14.4612 11.715C14.5665 11.654 14.6908 11.6344 14.8099 11.66L16.3099 12C16.7033 12.1014 17.1193 12.069 17.4923 11.9078C17.8653 11.7467 18.174 11.466 18.3699 11.11C18.5799 10.7592 18.6692 10.3492 18.624 9.94288C18.5789 9.53651 18.4018 9.15614 18.1199 8.86001L16.9999 7.75001ZM11.9999 10.61C11.3665 10.61 10.7475 10.4221 10.221 10.07C9.69456 9.71795 9.28441 9.21758 9.04251 8.63227C8.8006 8.04697 8.73782 7.40304 8.86211 6.78203C8.98639 6.16102 9.29216 5.59086 9.74068 5.14373C10.1892 4.6966 10.7603 4.39262 11.3817 4.27028C12.0031 4.14794 12.6469 4.21274 13.2314 4.45647C13.8159 4.70021 14.315 5.11192 14.6654 5.63947C15.0159 6.16702 15.2018 6.78669 15.1999 7.42001C15.1999 7.83977 15.117 8.2554 14.9561 8.64308C14.7952 9.03077 14.5593 9.38287 14.262 9.67922C13.9647 9.97557 13.6119 10.2103 13.2237 10.3701C12.8355 10.5298 12.4196 10.6113 11.9999 10.61Z" fill="#CCCCCC"/>
<path d="M8.99023 16.25C8.99023 16.6321 9.0655 17.0105 9.21174 17.3636C9.35799 17.7166 9.57234 18.0374 9.84255 18.3076C10.1128 18.5779 10.4336 18.7922 10.7866 18.9385C11.1397 19.0847 11.5181 19.16 11.9002 19.16C12.2824 19.16 12.6608 19.0847 13.0138 18.9385C13.3669 18.7922 13.6877 18.5779 13.9579 18.3076C14.2281 18.0374 14.4425 17.7166 14.5887 17.3636C14.735 17.0105 14.8102 16.6321 14.8102 16.25C14.8102 15.4782 14.5036 14.738 13.9579 14.1923C13.4122 13.6466 12.672 13.34 11.9002 13.34C11.1285 13.34 10.3883 13.6466 9.84255 14.1923C9.29682 14.738 8.99023 15.4782 8.99023 16.25Z" fill="#CCCCCC"/>
</svg>
