<svg width="24" height="24" viewBox="0 0 24 24" fill="none" xmlns="http://www.w3.org/2000/svg">
<path d="M16.3404 12.32C16.5539 12.2919 16.759 12.2185 16.9418 12.1047C17.1246 11.9909 17.281 11.8392 17.4004 11.66L20.5804 6.87999C20.6677 6.77163 20.7314 6.64625 20.7675 6.51186C20.8035 6.37748 20.8111 6.23704 20.7898 6.09954C20.7685 5.96205 20.7188 5.83051 20.6437 5.71334C20.5687 5.59617 20.47 5.49595 20.354 5.41909C20.238 5.34224 20.1073 5.29043 19.9701 5.26698C19.833 5.24354 19.6924 5.24897 19.5575 5.28294C19.4226 5.31691 19.2962 5.37866 19.1865 5.46425C19.0768 5.54984 18.9862 5.65738 18.9204 5.77999L16.3804 9.58999C16.3406 9.64906 16.289 9.69915 16.2287 9.73704C16.1684 9.77493 16.1009 9.79978 16.0304 9.80999C15.9584 9.81676 15.8857 9.80872 15.817 9.78637C15.7482 9.76401 15.6847 9.72781 15.6304 9.67999L14.4204 8.58999C14.3249 8.49269 14.2106 8.41593 14.0844 8.36442C13.9582 8.31292 13.8228 8.28776 13.6865 8.29048C13.5503 8.29321 13.416 8.32377 13.2919 8.38028C13.1679 8.43679 13.0567 8.51806 12.9652 8.61911C12.8738 8.72015 12.8039 8.83883 12.7599 8.96785C12.716 9.09688 12.6989 9.23353 12.7097 9.3694C12.7205 9.50528 12.7589 9.63752 12.8227 9.758C12.8864 9.87847 12.9741 9.98464 13.0804 10.07L15.1504 11.94C15.3105 12.084 15.4994 12.1924 15.7046 12.2579C15.9097 12.3234 16.1264 12.3446 16.3404 12.32Z" fill="#CCCCCC"/>
<path d="M8.81012 8.45003C8.77164 8.43144 8.73856 8.4033 8.71405 8.36828C8.68954 8.33327 8.67442 8.29256 8.67012 8.25003C8.6612 8.20316 8.66587 8.15472 8.68359 8.11042C8.70131 8.06612 8.73134 8.02782 8.77012 8.00003C9.50852 7.42329 10.0485 6.63045 10.3147 5.73212C10.5809 4.83378 10.56 3.87476 10.2551 2.98884C9.95008 2.10292 9.37617 1.33429 8.61341 0.790181C7.85065 0.246069 6.93707 -0.0463867 6.00012 -0.0463867C5.06318 -0.0463867 4.1496 0.246069 3.38684 0.790181C2.62408 1.33429 2.05017 2.10292 1.74519 2.98884C1.44021 3.87476 1.41937 4.83378 1.68556 5.73212C1.95176 6.63045 2.49172 7.42329 3.23012 8.00003C3.26256 8.02431 3.28861 8.05611 3.30603 8.0927C3.32345 8.12928 3.33172 8.16955 3.33012 8.21003C3.32583 8.25256 3.31071 8.29327 3.2862 8.32828C3.26169 8.3633 3.22861 8.39144 3.19012 8.41003C2.22117 8.92361 1.4115 9.69292 0.849094 10.6344C0.286691 11.5758 -0.00693493 12.6534 0.000124352 13.75V17.25C0.000124352 17.5152 0.105481 17.7696 0.293018 17.9571C0.480554 18.1447 0.734908 18.25 1.00012 18.25H2.12012C2.24608 18.2496 2.36756 18.2968 2.46026 18.3821C2.55295 18.4673 2.61005 18.5845 2.62012 18.71L3.00012 23.31C3.01746 23.4975 3.10377 23.6719 3.24233 23.7994C3.3809 23.9268 3.56185 23.9984 3.75012 24H8.25012C8.4384 23.9984 8.61935 23.9268 8.75792 23.7994C8.89648 23.6719 8.98279 23.4975 9.00012 23.31L9.38012 18.71C9.3902 18.5845 9.4473 18.4673 9.53999 18.3821C9.63269 18.2968 9.75416 18.2496 9.88013 18.25H11.0001C11.2653 18.25 11.5197 18.1447 11.7072 17.9571C11.8948 17.7696 12.0001 17.5152 12.0001 17.25V13.75C11.9999 12.6602 11.7028 11.591 11.1408 10.6572C10.5788 9.72349 9.77306 8.96044 8.81012 8.45003ZM3.60012 3.82003C3.6082 3.78258 3.62512 3.7476 3.64947 3.71803C3.67383 3.68845 3.70491 3.66514 3.74012 3.65003C3.77489 3.63518 3.81231 3.62752 3.85012 3.62752C3.88794 3.62752 3.92535 3.63518 3.96012 3.65003C4.87785 4.20328 5.92854 4.49706 7.00012 4.50003C7.39958 4.49575 7.79785 4.45559 8.19012 4.38003C8.22261 4.36336 8.25861 4.35467 8.29512 4.35467C8.33164 4.35467 8.36763 4.36336 8.40012 4.38003C8.42934 4.40434 8.45263 4.43498 8.46823 4.46964C8.48382 4.50429 8.49131 4.54205 8.49012 4.58003C8.47289 5.24307 8.19296 5.87211 7.71193 6.32876C7.2309 6.78541 6.58817 7.03227 5.92512 7.01503C5.26208 6.99779 4.63305 6.71787 4.1764 6.23684C3.71974 5.75581 3.47289 5.11307 3.49012 4.45003C3.49518 4.23572 3.53226 4.02338 3.60012 3.82003ZM10.0001 15.75C10.0001 15.8826 9.94745 16.0098 9.85368 16.1036C9.75991 16.1974 9.63273 16.25 9.50012 16.25H2.50012C2.36752 16.25 2.24034 16.1974 2.14657 16.1036C2.0528 16.0098 2.00012 15.8826 2.00012 15.75V13.75C2.00475 12.9261 2.26371 12.1237 2.74161 11.4525C3.21951 10.7812 3.89304 10.274 4.67012 10C4.70437 9.98326 4.74199 9.97453 4.78012 9.97453C4.81826 9.97453 4.85588 9.98326 4.89012 10C4.92428 10.0209 4.95239 10.0503 4.97168 10.0854C4.99098 10.1205 5.00078 10.16 5.00012 10.2V13.72C5.00012 13.9852 5.10548 14.2396 5.29302 14.4271C5.48055 14.6147 5.73491 14.72 6.00012 14.72C6.26534 14.72 6.51969 14.6147 6.70723 14.4271C6.89477 14.2396 7.00012 13.9852 7.00012 13.72V10.23C6.99947 10.19 7.00927 10.1505 7.02856 10.1154C7.04786 10.0803 7.07597 10.0509 7.11012 10.03C7.14437 10.0133 7.18199 10.0045 7.22012 10.0045C7.25826 10.0045 7.29588 10.0133 7.33012 10.03C8.10244 10.3022 8.7726 10.8049 9.25008 11.4702C9.72757 12.1354 9.98937 12.9312 10.0001 13.75V15.75Z" fill="#CCCCCC"/>
<path d="M21 0H12.5C12.2348 0 11.9804 0.105357 11.7929 0.292893C11.6054 0.48043 11.5 0.734784 11.5 1C11.5 1.26522 11.6054 1.51957 11.7929 1.70711C11.9804 1.89464 12.2348 2 12.5 2H21C21.2652 2 21.5196 2.10536 21.7071 2.29289C21.8946 2.48043 22 2.73478 22 3V16C22 16.2652 21.8946 16.5196 21.7071 16.7071C21.5196 16.8946 21.2652 17 21 17H15C14.7348 17 14.4804 17.1054 14.2929 17.2929C14.1054 17.4804 14 17.7348 14 18C14 18.2652 14.1054 18.5196 14.2929 18.7071C14.4804 18.8946 14.7348 19 15 19H21C21.7956 19 22.5587 18.6839 23.1213 18.1213C23.6839 17.5587 24 16.7957 24 16V3C24 2.20435 23.6839 1.44129 23.1213 0.87868C22.5587 0.316071 21.7956 0 21 0Z" fill="#CCCCCC"/>
</svg>
